<svg xmlns="http://www.w3.org/2000/svg" xmlns:xlink="http://www.w3.org/1999/xlink" preserveAspectRatio="xMidYMid meet" version="1.0" viewBox="465.4 682.4 1525.8 1087.8" zoomAndPan="magnify" style="fill: rgb(0, 0, 0);" original_string_length="15814"><g id="__id2056_s5grt9yp6h"><path d="M 1459.042969 794.082031 C 1473.910156 796.792969 1489.410156 800.835938 1505.195312 806.101562 C 1532.570312 782.246094 1563.257812 765.742188 1593.355469 758.546875 C 1582.886719 750.019531 1572.40625 741.515625 1561.9375 733.050781 C 1544.957031 745 1527.085938 755.957031 1509.789062 766.558594 C 1503.925781 770.152344 1498.074219 773.742188 1492.246094 777.359375 C 1489.496094 779.09375 1480.457031 783.550781 1465.957031 790.671875 C 1463.769531 791.75 1461.425781 792.910156 1459.042969 794.082031 Z M 1534.609375 817.339844 C 1548.730469 823.300781 1563.183594 830.277344 1578.417969 838.449219 C 1587.078125 835.273438 1595.789062 831.890625 1604.546875 828.492188 C 1621.222656 821.996094 1638.347656 815.335938 1655.597656 809.972656 C 1643.394531 799.699219 1630.710938 789.171875 1617.75 778.507812 C 1586.84375 789.832031 1560.019531 802.351562 1534.609375 817.339844 Z M 1617.445312 861.171875 C 1621.894531 863.945312 1626.4375 866.839844 1631.128906 869.894531 C 1649.878906 865.09375 1668.007812 859.203125 1681.898438 854.539062 C 1685.804688 853.242188 1689.679688 851.800781 1693.574219 850.398438 C 1695.726562 849.601562 1697.914062 848.808594 1700.109375 848.015625 C 1695.980469 844.421875 1691.851562 840.832031 1687.699219 837.265625 C 1665.734375 848.785156 1640.398438 855.796875 1617.445312 861.171875 Z M 1666.933594 894.214844 C 1673.394531 898.796875 1680.1875 903.695312 1687.566406 909.09375 C 1704.289062 905.367188 1720.476562 901.203125 1735.71875 896.695312 C 1738.847656 895.777344 1741.964844 894.777344 1745.089844 893.777344 C 1746.59375 893.300781 1748.109375 892.808594 1749.648438 892.335938 C 1742.734375 885.980469 1735.769531 879.667969 1728.78125 873.398438 C 1710.777344 883.488281 1689.007812 889.609375 1666.933594 894.214844 Z M 1725.277344 937.277344 C 1726.472656 936.8125 1727.71875 936.507812 1729.015625 936.359375 C 1742.867188 934.746094 1757.722656 932.941406 1772.589844 930.667969 C 1777.890625 929.847656 1783.128906 929.042969 1788.492188 928.894531 C 1785.132812 925.683594 1781.738281 922.484375 1778.367188 919.28125 C 1761.910156 928.445312 1742.097656 932.609375 1723.050781 935.589844 C 1723.796875 936.152344 1724.542969 936.714844 1725.277344 937.277344 Z M 1810.789062 1005.246094 C 1812.449219 1004.390625 1814.257812 1003.839844 1816.175781 1003.621094 L 1819.898438 1003.195312 C 1828.476562 1002.226562 1837.367188 1001.214844 1846.359375 1001.214844 C 1849.085938 1001.214844 1851.820312 1001.3125 1854.558594 1001.519531 C 1856.132812 1001.640625 1857.597656 1001.910156 1858.96875 1002.3125 C 1844.773438 985.785156 1829.84375 970.003906 1814.804688 954.804688 C 1813.914062 955.917969 1812.828125 956.894531 1811.582031 957.714844 C 1801.613281 964.226562 1789.484375 965.226562 1778.792969 966.144531 C 1776.105469 966.363281 1773.46875 966.582031 1770.902344 966.898438 C 1768.824219 967.144531 1766.699219 967.386719 1764.5625 967.632812 C 1766.796875 969.402344 1769.035156 971.175781 1771.269531 972.933594 C 1773.785156 972.910156 1776.277344 972.875 1778.804688 972.875 C 1787.148438 972.875 1796.996094 973.214844 1806.609375 975.683594 C 1811.507812 976.941406 1814.953125 981.4375 1814.941406 986.617188 C 1814.941406 991.539062 1811.726562 995.667969 1806.964844 996.902344 C 1805.375 997.304688 1803.761719 997.660156 1802.089844 997.988281 C 1804.996094 1000.382812 1807.878906 1002.800781 1810.789062 1005.246094 Z M 579.308594 1062.941406 C 593.851562 1063.90625 609.441406 1065.03125 626.773438 1066.351562 C 662.824219 1038.351562 715.394531 1016.910156 771.515625 1006.882812 C 765.914062 1006.515625 760.148438 1005.992188 754.167969 1005.441406 C 742.675781 1004.390625 730.789062 1003.292969 719.371094 1003.292969 C 701.394531 1003.292969 688.105469 1006.003906 677.550781 1011.855469 C 643.707031 1030.582031 610.773438 1047.707031 579.308594 1062.941406 Z M 817.765625 1082.265625 C 835.1875 1083.683594 854.621094 1085.210938 874.378906 1086.640625 L 874.71875 1086.46875 C 885.929688 1080.324219 897.03125 1073.960938 908.113281 1067.582031 C 922.679688 1059.226562 937.734375 1050.589844 952.894531 1042.601562 C 973.453125 1031.765625 995.0625 1021.210938 1017.910156 1013.222656 C 981.621094 1012.488281 948.53125 1011.769531 916.542969 1010.976562 L 886.765625 1010.253906 C 862.003906 1009.65625 836.628906 1009.03125 811.308594 1008.3125 C 813.484375 1010.851562 814.871094 1014.1875 815.125 1017.976562 C 815.757812 1027.332031 809.339844 1035.320312 800.207031 1036.554688 C 765.445312 1041.257812 730.332031 1053.011719 695.828125 1071.492188 C 695.597656 1071.613281 695.371094 1071.722656 695.144531 1071.871094 C 709 1073.03125 722.859375 1074.203125 736.710938 1075.402344 C 753.644531 1067.523438 771.597656 1060.535156 787.492188 1054.367188 C 794.222656 1051.75 800.722656 1049.222656 806.847656 1046.742188 C 852.453125 1028.347656 891.824219 1020.148438 934.519531 1020.148438 L 939.332031 1020.171875 C 946.574219 1020.285156 952.1875 1025.828125 952.390625 1033.074219 C 952.589844 1040.109375 947.386719 1045.816406 940.300781 1046.304688 C 897.132812 1049.320312 854.621094 1065.605469 817.765625 1082.265625 Z M 953.261719 1091.5625 C 961.925781 1092.003906 970.597656 1092.382812 979.257812 1092.761719 L 988.46875 1093.164062 C 1011.660156 1078.296875 1037.179688 1066.628906 1061.890625 1055.355469 C 1067.800781 1052.644531 1073.621094 1049.992188 1079.3125 1047.328125 C 1102.300781 1036.578125 1126.402344 1026.109375 1152.292969 1015.59375 C 1144.691406 1015.457031 1120.601562 1015.042969 1120.601562 1015.042969 C 1120.519531 1015.824219 1120.402344 1016.582031 1120.199219 1017.339844 C 1118.703125 1023.191406 1113.691406 1026.964844 1107.421875 1026.964844 L 1106.359375 1026.964844 C 1052.75 1026.964844 1001.070312 1057.578125 955.480469 1084.601562 L 944.453125 1091.109375 C 947.386719 1091.269531 950.324219 1091.429688 953.261719 1091.5625 Z M 1358.335938 1093.714844 C 1366.960938 1094.496094 1376.304688 1095.082031 1385.5625 1095.082031 C 1398.28125 1095.082031 1409.324219 1094.03125 1419.121094 1091.867188 C 1417.828125 1077.671875 1417.507812 1063.382812 1417.65625 1049.785156 C 1413.257812 1053.597656 1408.714844 1057.554688 1403.65625 1060.976562 L 1402.105469 1062.011719 C 1389.070312 1070.820312 1375.597656 1079.921875 1363.171875 1089.828125 C 1361.546875 1091.125 1359.933594 1092.417969 1358.335938 1093.714844 Z M 1080.0625 1096.71875 L 1085.722656 1094.066406 C 1093.511719 1090.464844 1101.570312 1086.714844 1108.949219 1082.632812 C 1122.730469 1074.984375 1136.609375 1066.910156 1150.03125 1059.105469 C 1159.460938 1053.621094 1168.878906 1048.125 1178.363281 1042.722656 C 1150.550781 1054.585938 1122.851562 1067.414062 1095.46875 1081.105469 C 1086.152344 1085.773438 1076.699219 1090.976562 1067.351562 1096.277344 C 1071.589844 1096.425781 1075.820312 1096.582031 1080.0625 1096.71875 Z M 1174.761719 1099.296875 C 1188.5 1091.527344 1203.179688 1084.6875 1217.410156 1078.078125 C 1231.214844 1071.664062 1244.25 1065.605469 1256.441406 1058.777344 C 1280.933594 1045.070312 1306.050781 1031.019531 1331.898438 1017.753906 L 1328.125 1017.730469 C 1280.019531 1028.273438 1236.113281 1055.34375 1193.632812 1081.523438 C 1186.339844 1086.015625 1179.070312 1090.488281 1171.839844 1094.847656 C 1169.589844 1096.191406 1167.292969 1097.621094 1164.960938 1099.074219 C 1168.230469 1099.148438 1171.492188 1099.234375 1174.761719 1099.296875 Z M 1848.988281 1038.472656 C 1881.125 1067.496094 1908.84375 1095.617188 1932.972656 1123.691406 C 1930.613281 1112.855469 1925.945312 1100.894531 1918.984375 1087.921875 C 1905.777344 1063.246094 1889.835938 1040.230469 1872.429688 1018.523438 C 1872.515625 1019.234375 1872.550781 1019.941406 1872.550781 1020.636719 C 1872.550781 1030.203125 1865.601562 1037.410156 1855.644531 1038.167969 C 1853.433594 1038.339844 1851.210938 1038.425781 1848.988281 1038.472656 Z M 1524.886719 1550.757812 C 1529.90625 1582.410156 1529.722656 1614.167969 1527.988281 1648.070312 C 1600.894531 1546.320312 1683.277344 1450.148438 1763.132812 1356.957031 C 1812.328125 1299.558594 1863.144531 1240.25 1911.191406 1180.261719 C 1848.414062 1100.089844 1764.148438 1032.402344 1697.386719 982.15625 L 1695.761719 980.9375 C 1629.441406 931.023438 1554.582031 874.695312 1474.191406 851.53125 C 1473.492188 876.90625 1472.296875 902.484375 1471.171875 927.308594 C 1470.527344 941.308594 1469.878906 955.308594 1469.316406 969.292969 C 1468.730469 983.964844 1468.609375 999.234375 1468.511719 1013.992188 C 1468.289062 1046.082031 1468.046875 1079.273438 1462.964844 1110.988281 C 1461.484375 1120.308594 1452.484375 1128.1875 1443.296875 1128.1875 C 1443.160156 1128.1875 1442.5625 1128.175781 1442.429688 1128.175781 C 1435.601562 1127.808594 1428.183594 1127.648438 1419.070312 1127.648438 C 1416.996094 1127.648438 1414.957031 1127.660156 1412.902344 1127.671875 C 1412.746094 1132.644531 1411.230469 1137.582031 1408.480469 1141.671875 C 1404.488281 1147.632812 1398.355469 1151.261719 1391.121094 1151.984375 C 1390.558594 1152.128906 1389.984375 1152.191406 1389.386719 1152.191406 C 1312.109375 1152.042969 1236.726562 1151.019531 1165.332031 1149.160156 C 1161.371094 1149.894531 1158.082031 1150.347656 1155.03125 1150.601562 C 1154.832031 1150.628906 1154.03125 1150.652344 1153.832031 1150.652344 C 1151.210938 1150.652344 1148.621094 1149.957031 1146.222656 1148.597656 C 1121.050781 1147.890625 1095.882812 1146.9375 1070.742188 1145.984375 C 1064.0625 1147.351562 1057.582031 1148.0625 1051.449219 1148.0625 C 1049.191406 1148.0625 1046.941406 1147.964844 1044.703125 1147.769531 C 1042.050781 1147.5625 1039.589844 1146.5 1037.582031 1144.761719 C 1017.710938 1143.933594 997.847656 1142.992188 977.96875 1142.003906 C 972.539062 1143.980469 967.917969 1145.519531 963.539062 1146.777344 C 962.3125 1147.132812 961.0625 1147.304688 959.796875 1147.304688 C 956.117188 1147.304688 952.507812 1145.742188 949.875 1143.027344 C 949.109375 1142.234375 948.449219 1141.355469 947.894531 1140.4375 L 868.796875 1136.101562 C 842.023438 1149.601562 820.046875 1155.90625 799.773438 1155.90625 C 792.054688 1155.855469 785.976562 1151.238281 783.980469 1144.410156 C 782.597656 1139.644531 783.5625 1134.832031 786.417969 1131.128906 C 765.851562 1129.75 746.453125 1128.308594 727.628906 1126.769531 C 714.605469 1131.605469 703.035156 1134.257812 692.304688 1134.855469 C 692.171875 1134.867188 691.683594 1134.878906 691.542969 1134.878906 C 685.71875 1134.878906 680.269531 1131.070312 677.976562 1125.363281 C 677.558594 1124.3125 677.253906 1123.261719 677.089844 1122.199219 C 623.527344 1116.863281 575.789062 1110.398438 531.828125 1102.519531 C 532.679688 1103.695312 533.402344 1104.976562 533.984375 1106.382812 C 536.160156 1111.597656 536.082031 1117.609375 533.855469 1122.507812 C 533.84375 1122.984375 533.835938 1123.519531 533.832031 1124.128906 C 533.773438 1129.457031 533.726562 1134.78125 533.851562 1140.085938 C 534.039062 1149.113281 534.199219 1158.128906 534.359375 1167.144531 L 534.773438 1189.65625 C 535.539062 1227.34375 537.035156 1265.648438 538.460938 1302.707031 L 539.242188 1323 C 540.347656 1351.789062 541.675781 1380.578125 543.003906 1409.359375 C 545.210938 1457.347656 547.503906 1506.878906 548.660156 1555.808594 C 571.199219 1553.980469 593.742188 1552.238281 616.269531 1550.5 C 675.378906 1545.949219 736.496094 1541.25 796.484375 1534.828125 C 813.136719 1533.050781 829.792969 1531.238281 846.4375 1529.417969 C 920.023438 1521.378906 996.109375 1513.070312 1071.320312 1508.417969 C 1129.292969 1504.828125 1187.261719 1504.347656 1236.324219 1504.347656 C 1254.207031 1504.347656 1272.113281 1504.417969 1290 1504.488281 C 1307.859375 1504.558594 1325.71875 1504.628906 1343.566406 1504.628906 L 1354.707031 1504.628906 C 1373.1875 1504.589844 1391.746094 1504.25 1410.335938 1503.929688 C 1429.675781 1503.578125 1449.648438 1503.230469 1469.316406 1503.230469 C 1484.035156 1503.230469 1497.230469 1503.417969 1509.617188 1503.828125 C 1517.335938 1503.828125 1523.910156 1506.667969 1528.476562 1511.808594 C 1533.375 1517.320312 1535.757812 1525.210938 1534.855469 1532.917969 C 1534.414062 1540.46875 1530.726562 1546.929688 1524.886719 1550.757812 Z M 1494.078125 1770.140625 C 1486.6875 1770.140625 1480.03125 1767.527344 1475.351562 1762.800781 C 1470.757812 1758.167969 1468.375 1751.851562 1468.460938 1744.53125 C 1468.679688 1723.570312 1470.292969 1701.929688 1471.855469 1681 C 1474.984375 1639.1875 1478.195312 1596.019531 1470.574219 1555.4375 C 1457.957031 1555.609375 1445.359375 1555.6875 1432.730469 1555.6875 C 1394.3125 1555.6875 1355.230469 1554.980469 1317.4375 1554.289062 C 1279.714844 1553.609375 1240.695312 1552.898438 1202.371094 1552.898438 C 1153.242188 1552.898438 1112.402344 1554.039062 1073.871094 1556.488281 C 1011.628906 1560.449219 947.652344 1567.648438 885.785156 1574.617188 C 790.992188 1585.289062 692.976562 1596.328125 596.804688 1596.328125 C 566.855469 1596.328125 537.8125 1595.238281 510.492188 1593.097656 C 502.039062 1592.429688 495.46875 1586.5 494.144531 1578.328125 C 493.222656 1572.628906 495.140625 1567.199219 499.082031 1563.578125 C 498.65625 1512 496.871094 1459.589844 495.148438 1408.867188 C 493.710938 1366.480469 492.21875 1322.648438 491.519531 1279.488281 C 491.492188 1277.808594 491.324219 1274.277344 491.074219 1269.320312 C 486.070312 1168.082031 490.417969 1116.03125 505.164062 1100.542969 C 507.152344 1098.453125 509.210938 1097.109375 511.160156 1096.277344 C 510.554688 1095.777344 509.992188 1095.253906 509.460938 1094.691406 C 502.789062 1097.5 496.117188 1100.261719 489.476562 1102.925781 C 487.59375 1103.65625 485.644531 1104.046875 483.671875 1104.046875 C 476.945312 1104.046875 470.621094 1099.527344 467.914062 1092.785156 C 465.359375 1086.433594 466.714844 1079.664062 471.449219 1075.132812 C 503.308594 1044.59375 544.585938 1025.4375 584.511719 1006.90625 C 611.035156 994.605469 638.460938 981.875 662.179688 966.105469 C 675.296875 957.371094 692.339844 953.304688 715.792969 953.304688 C 727.984375 953.304688 740.277344 954.355469 752.15625 955.378906 C 761.597656 956.199219 770.503906 956.96875 778.554688 957.128906 C 804.609375 957.652344 830.660156 958.335938 856.707031 959.03125 C 871.617188 959.449219 886.523438 959.828125 901.429688 960.195312 C 1043.5 963.6875 1230.960938 967.683594 1421.160156 967.753906 C 1421.308594 964.003906 1421.464844 960.265625 1421.5625 956.566406 C 1422.847656 910.488281 1422.796875 864.347656 1422.75 819.722656 C 1422.75 816.09375 1423.398438 812.601562 1424.667969 809.386719 C 1423.25 808.851562 1421.96875 808.007812 1420.855469 806.894531 C 1417.496094 803.535156 1416.007812 799.199219 1416.554688 794.339844 C 1418.875 773.644531 1461.535156 742.785156 1529.601562 699.714844 C 1539.128906 693.667969 1547.375 688.464844 1549.976562 686.421875 C 1553.386719 683.761719 1557.574219 682.367188 1562.082031 682.367188 C 1567.398438 682.367188 1572.957031 684.320312 1577.316406 687.777344 C 1592.832031 699.996094 1608.40625 712.125 1623.980469 724.242188 C 1709.785156 791.0625 1798.5 860.167969 1874.480469 942.566406 C 1914.78125 986.25 1964.925781 1040.621094 1981.785156 1103.679688 C 1991.191406 1138.886719 1985.621094 1196.609375 1951.136719 1215.128906 C 1903.703125 1274.480469 1853.457031 1333.21875 1804.875 1390.007812 C 1705.730469 1505.929688 1603.203125 1625.789062 1519.804688 1756.507812 C 1514.441406 1764.917969 1504.582031 1770.140625 1494.078125 1770.140625" style="fill: rgb(109, 55, 139);"/></g></svg>