<svg xmlns="http://www.w3.org/2000/svg" xmlns:xlink="http://www.w3.org/1999/xlink" preserveAspectRatio="xMidYMid meet" version="1.0" viewBox="-763.2 -265.2 2058.7 1345.5" zoomAndPan="magnify" style="fill: rgb(0, 0, 0);" original_string_length="9215"><g><g id="__id219_s5grt9yp6h" style="fill: rgb(202, 163, 228);"><path d="M-421.90018,766.6371Q-430.88736,763.1085,-438.28162,759.6742Q-445.67584,756.2401,-454.1654,751.49475Q-462.65497,746.7494,-471.7111,740.8988Q-480.76718,735.0482,-490.4706,727.2689Q-500.17407,719.4896,-510.56265,709.75305Q-520.9513,700.01624,-531.0608,687.8502Q-541.17035,675.6847,-550.5371,661.71326Q-559.9038,647.7418,-568.07806,631.66223Q-576.2524,615.5829,-582.7662,597.34265Q-589.2799,579.1022,-593.8002,558.86096Q-598.32043,538.62,-600.6328,517.1129Q-602.9453,495.60583,-603.1645,473.54993Q-603.38367,451.49377,-600.77783,428.67175Q-598.17206,405.8496,-592.9489,383.1819Q-587.72577,360.51428,-579.6711,338.93713Q-571.61646,317.35986,-561.5918,297.55566Q-551.5671,277.75146,-539.0359,259.95947Q-526.50464,242.16736,-512.2888,226.94812Q-498.07294,211.729,-482.03284,199.948Q-465.9928,188.16711,-448.73877,179.49524Q-431.48477,170.82349,-413.93982,164.85657Q-396.3949,158.88965,-379.1236,155.55676Q-361.85236,152.22388,-344.98468,150.89429Q-328.11694,149.56482,-313.1665,149.4231Q-298.216,149.2815,-284.89313,149.78064Q-271.57025,150.27979,-259.79083,151.31287Q-248.01147,152.34607,-237.70038,153.45923Q-227.38922,154.57239,-218.71503,155.4591Q-210.0409,156.34583,-199.66669,155.49121Q-189.29248,154.63672,-187.69244,143.63708Q-186.0924,132.63745,-187.45563,124.806274Q-188.81885,116.97522,-190.43958,106.769165Q-192.0603,96.56323,-193.2926,84.368774Q-194.52496,72.17432,-194.37726,57.178223Q-194.22955,42.18225,-192.63324,25.515991Q-191.03693,8.849609,-187.36823,-9.066895Q-183.69952,-26.983643,-177.16888,-45.96692Q-170.63824,-64.950195,-161.0509,-83.61902Q-151.4635,-102.288086,-138.54553,-120.098145Q-125.6275,-137.9082,-109.83844,-154.48755Q-94.04938,-171.0669,-74.54712,-186.25513Q-55.044983,-201.44336,-32.276672,-214.46277Q-9.508423,-227.48206,17.711182,-237.32751Q44.930847,-247.17297,74.90918,-253.52588Q104.88751,-259.8789,136.94513,-262.52258Q169.00275,-265.16614,202.93219,-263.5747Q236.86151,-261.98315,271.5401,-256.18384Q306.2188,-250.38464,340.30048,-240.45447Q374.38226,-230.52429,406.43756,-218.12683Q438.49274,-205.72913,467.91315,-190.79468Q497.3333,-175.86035,523.1934,-159.49951Q549.0534,-143.1388,571.28864,-127.67285Q593.52374,-112.20703,611.8077,-97.15112Q630.09174,-82.09509,644.0881,-67.272705Q658.08453,-52.450195,667.98236,-38.135742Q677.8802,-23.82129,683.6773,-10.992676Q689.47455,1.8359375,692.1573,13.178223Q694.84015,24.52063,695.3886,34.13452Q695.9371,43.748535,694.09,51.161133Q692.243,58.573853,684.607,65.45569Q676.971,72.33765,669.29584,69.58508Q661.62067,66.83252,659.19196,57.985474Q656.76337,49.13855,658.56573,40.075073Q660.368,31.011475,665.0533,20.322388Q669.7386,9.633179,677.60236,-1.4101562Q685.4661,-12.453735,695.5827,-23.000732Q705.6993,-33.547607,718.0136,-43.246216Q730.3277,-52.944824,743.4063,-61.35559Q756.48505,-69.76648,770.2911,-76.7157Q784.0971,-83.664795,799.8394,-88.55762Q815.58185,-93.45044,832.039,-96.30383Q848.49615,-99.15698,865.9876,-99.127075Q883.4792,-99.09729,901.03656,-96.33557Q918.5942,-93.573975,936.1015,-87.46887Q953.6088,-81.36377,970.0489,-73.100464Q986.4892,-64.837036,1001.87665,-54.38867Q1017.26434,-43.94043,1031.5117,-31.771118Q1045.759,-19.601685,1058.2234,-6.208496Q1070.6877,7.1846924,1081.3376,20.641235Q1091.9875,34.0979,1100.9807,46.9635Q1109.9739,59.829224,1116.7415,72.53821Q1123.5088,85.24719,1128.008,97.50635Q1132.5073,109.765625,1134.2397,121.67053Q1135.9724,133.57556,1135.6885,144.52808Q1135.4045,155.48059,1133.2312,165.43774Q1131.0579,175.39502,1127.4976,183.9237Q1123.9375,192.4524,1119.918,199.72717Q1115.8987,207.00195,1111.5737,212.98218Q1107.249,218.96228,1099.3413,225.74927Q1091.4338,232.5365,1087.7166,224.96216Q1083.9993,217.38794,1088.365,208.9104Q1092.7307,200.4331,1099.6333,192.42383Q1106.5361,184.41467,1117.385,176.73718Q1128.2341,169.0597,1138.6428,167.31262Q1149.0518,165.56555,1156.7224,166.57886Q1164.3933,167.59229,1172.4988,170.6886Q1180.6045,173.78491,1188.8657,179.35559Q1197.1272,184.92627,1205.3823,192.83264Q1213.6375,200.73914,1221.4424,210.45068Q1229.2473,220.16223,1236.7793,232.48962Q1244.3113,244.81702,1251.2646,259.39746Q1258.218,273.97766,1264.3352,290.57922Q1270.4519,307.1808,1275.8601,324.7954Q1281.2686,342.4098,1285.6362,360.77393Q1290.0037,379.1383,1292.7097,398.06592Q1295.4158,416.9939,1295.1887,436.2036Q1294.9619,455.41333,1291.9807,474.0631Q1288.9993,492.71326,1283.2913,510.42224Q1277.583,528.131,1268.728,544.505Q1259.873,560.879,1248.3904,575.6427Q1236.9077,590.4064,1223.4922,603.3302Q1210.0767,616.254,1196.0537,627.371Q1182.0305,638.4879,1167.3438,647.714Q1152.6567,656.94006,1138.3032,664.2562Q1123.9495,671.5724,1110.6006,677.49036Q1097.2517,683.4088,1085.2788,688.0228Q1073.3059,692.63684,1063.3398,695.99475Q1053.3738,699.3522,1043.9714,700.8353Q1034.5693,702.3185,1044.707,699.6022Q1054.8447,696.8856,1062.9749,698.32825Q1071.1047,699.7709,1080.1482,702.9686Q1089.1921,706.1664,1098.4316,711.2003Q1107.6711,716.23425,1116.2585,723.16125Q1124.846,730.088,1132.227,738.77893Q1139.6082,747.46985,1144.8818,759.1793Q1150.1555,770.88855,1153.3652,784.1515Q1156.5752,797.4142,1157.0002,812.34924Q1157.4253,827.2843,1154.3789,843.3751Q1151.3325,859.4662,1144.7397,876.0985Q1138.1472,892.7311,1128.1626,908.75305Q1118.178,924.7748,1105.1372,939.53894Q1092.0967,954.3031,1076.198,967.1654Q1060.2996,980.02747,1041.7437,990.9149Q1023.18744,1001.80237,1001.2072,1009.5719Q979.22687,1017.34143,956.2624,1022.69104Q933.2979,1028.0406,909.1951,1030.3893Q885.09235,1032.7379,860.46027,1032.2892Q835.8283,1031.8405,811.934,1028.5184Q788.03986,1025.1964,765.74286,1019.7313Q743.44586,1014.266,723.0119,1007.0897Q702.5778,999.91345,684.25275,991.34314Q665.9277,982.7728,649.7957,973.25964Q633.6639,963.7467,619.8228,954.3319Q605.9819,944.91736,594.0495,936.19055Q582.117,927.46326,572.08844,919.39Q562.0599,911.317,554.1495,903.921Q546.23895,896.5255,540.4274,890.35974Q534.6159,884.1942,530.13995,877.5802Q525.66376,870.9662,530.7319,879.11804Q535.79974,887.26965,537.3736,897.723Q538.9477,908.1764,538.7465,916.64124Q538.5455,925.1061,536.44305,934.713Q534.3405,944.31995,529.9666,954.8395Q525.5926,965.359,518.6484,975.944Q511.70416,986.52893,502.87604,996.7152Q494.04803,1006.90173,482.87714,1016.4474Q471.70624,1025.9933,458.1823,1034.4843Q444.6584,1042.975,428.49933,1050.297Q412.34027,1057.6188,393.5827,1063.2601Q374.8249,1068.902,354.07684,1072.7838Q333.32867,1076.6656,310.57355,1078.5104Q287.81854,1080.3549,263.8277,1080.2128Q239.83685,1080.0702,215.8852,1077.7072Q191.93353,1075.3439,168.80402,1071.4015Q145.67462,1067.4594,123.662964,1061.6869Q101.65143,1055.9142,81.32428,1048.9071Q60.997192,1041.9005,42.400146,1034.4762Q23.802979,1027.0521,7.223877,1019.28723Q-9.355225,1011.52234,-24.01355,1003.97766Q-38.671814,996.43274,-51.272095,988.85364Q-63.872375,981.27454,-74.46588,973.20544Q-85.05945,965.1361,-92.80621,957.0419Q-100.55292,948.9474,-106.283936,941.18616Q-112.015015,933.42444,-115.45819,926.3756Q-118.90143,919.3268,-119.774536,909.3231Q-120.647644,899.31946,-110.07416,898.1727Q-99.50061,897.026,-96.92261,906.27136Q-94.344604,915.51697,-103.268005,924.7743Q-112.19141,934.0321,-120.22986,938.81213Q-128.26819,943.5919,-138.61304,948.0934Q-148.95782,952.59485,-162.32715,956.2953Q-175.69647,959.9957,-192.52301,962.5187Q-209.34955,965.0419,-228.84521,966.29553Q-248.34082,967.54944,-268.87628,967.5956Q-289.4118,967.64197,-310.8026,966.39197Q-332.19342,965.1415,-353.19806,962.58093Q-374.20276,960.02014,-394.38855,956.0133Q-414.57428,952.0067,-433.69708,947.0785Q-452.8199,942.15027,-470.96835,936.3441Q-489.11682,930.53796,-505.30902,924.27795Q-521.5012,918.0182,-535.8175,912.09314Q-550.1337,906.1681,-562.58435,899.9794Q-575.0349,893.79065,-585.40674,887.34827Q-595.7785,880.9061,-603.0596,874.0409Q-610.3407,867.1754,-615.35876,860.0377Q-620.3767,852.9,-623.6034,846.0941Q-626.8301,839.2882,-630.1251,827.61707Q-633.42017,815.9457,-634.6741,806.3988Q-635.92804,796.8519,-637.3615,786.7594Q-638.79504,776.6671,-647.6805,768.6444Q-656.5659,760.62146,-663.9,756.3302Q-671.2341,752.03894,-679.7868,746.9523Q-688.33954,741.86584,-695.11566,736.9479Q-701.89185,732.0304,-708.7011,726.20496Q-715.5104,720.3795,-721.9757,713.5067Q-728.441,706.6339,-734.18427,699.0204Q-739.92755,691.40686,-745.00543,682.13367Q-750.0834,672.86096,-754.1589,662.48206Q-758.2344,652.1034,-760.7361,640.2843Q-763.2378,628.46497,-761.5254,615.7594Q-759.81287,603.0541,-754.7853,589.4684Q-749.7576,575.88245,-741.459,561.9923Q-733.1604,548.1022,-722.06323,534.59705Q-710.966,521.0917,-696.2294,508.06238Q-681.4927,495.03333,-663.9571,482.95007Q-646.4215,470.86682,-626.27563,459.96265Q-606.12976,449.05847,-584.8601,439.31763Q-563.59045,429.57703,-540.80145,421.12024Q-518.0123,412.66333,-494.60202,405.2318Q-471.19165,397.8004,-446.4861,391.4309Q-421.7806,385.0614,-397.05713,379.42993L-372.33368,373.79834 Z" style="fill: inherit;"/></g></g></svg>