<svg xmlns="http://www.w3.org/2000/svg" xmlns:xlink="http://www.w3.org/1999/xlink" preserveAspectRatio="xMidYMid meet" version="1.0" viewBox="-153.3 -80.9 737.6 648.0" zoomAndPan="magnify" style="fill: rgb(0, 0, 0);" original_string_length="1139"><g id="__id221_s5grt9yp6h"><path d="M215.1,242.9C-153.3,233.9,23.1-71.7,215.1,242.9L215.1,242.9z M215.5,243.5 C39,567.1,391.9,567.1,215.5,243.5L215.5,243.5z M215.1,243.3C-153.3,252.3,23.1,557.9,215.1,243.3L215.1,243.3z M215.5,242.7 C391.9-80.9,39-80.9,215.5,242.7L215.5,242.7z M215.9,243.3C407.9,557.9,584.3,252.3,215.9,243.3L215.9,243.3z M215.9,242.9 C584.3,233.9,407.9-71.7,215.9,242.9L215.9,242.9z M231.9,243.1c-5.4,0-10.8-0.1-16-0.2c0,0,0,0,0,0c0,0,0,0,0,0 c2.5-4.6,5.1-9.2,7.8-14c-2.7,4.7-5.4,9.3-8.2,13.8c0,0,0,0,0,0c0,0,0,0,0,0c-2.7-4.5-5.4-9.1-8.2-13.8c2.7,4.7,5.3,9.4,7.8,14 c0,0,0,0,0,0c0,0,0,0,0,0c-5.2,0.1-10.6,0.2-16,0.2c5.4,0,10.8,0.1,16,0.2c0,0,0,0,0,0c0,0,0,0,0,0c-2.5,4.6-5.1,9.2-7.8,14 c2.7-4.7,5.4-9.3,8.2-13.8c0,0,0,0,0,0c0,0,0,0,0,0c2.7,4.5,5.4,9.1,8.2,13.8c-2.7-4.7-5.3-9.4-7.8-14c0,0,0,0,0,0c0,0,0,0,0,0 C221.1,243.1,226.4,243.1,231.9,243.1z" style="fill: rgb(243, 229, 244);"/></g></svg>