<svg xmlns="http://www.w3.org/2000/svg" xmlns:xlink="http://www.w3.org/1999/xlink" preserveAspectRatio="xMidYMid meet" version="1.0" viewBox="-1.6 -2.1 244.2 240.1" zoomAndPan="magnify" style="fill: rgb(0, 0, 0);" original_string_length="2090"><g id="__id170_sxmtq6caj"><path d="M161.66,90.31c9.02-2.08,15.36-3.66,21.76-5,8.11-1.69,16.26-1.65,24.44-.27,5.47,.92,10.23,3.33,14.1,7.04,5.58,5.35,9.03,11.7,6.33,19.86-.51,1.54-.87,3.14-1.49,5.42,1.88,2.21,4.15,4.49,5.97,7.09,9.82,13.99,4.38,26.95-9.33,33.3-6.49,3.01-13.5,3.72-20.46,2.54-8.87-1.5-17.65-3.56-26.45-5.47-3.82-.83-7.54-2.65-12.43-.94,2.81,3.29,5.23,5.99,7.52,8.81,8.06,9.91,15.55,20.23,18.97,32.74,1.38,5.06,2.28,10.49,2.06,15.69-.48,11.19-9.53,17.56-20.47,15.02-3.53-.82-6.99-1.97-11.02-3.12-1.5,2.25-2.68,4.34-4.16,6.19-5.7,7.06-12.12,8.72-20.79,5.72-5.25-1.81-9.18-5.25-12.58-9.48-10.52-13.08-16.63-28.09-19.87-44.45-.77-3.88,.09-8.28-3.36-11.83-3.08,2.87-6.02,5.68-9.04,8.41-12.07,10.89-25.75,18.85-41.6,22.86-5.24,1.33-10.44,1.82-15.75,.16-8.82-2.77-12.9-7.63-13.53-16.84-.17-2.41,.15-4.85,.26-7.85-3.78-1.49-7.61-2.79-11.26-4.5-8-3.73-11.07-10.85-8.63-19.3,1.42-4.92,4.43-8.72,8.17-12.03,7.17-6.33,15.34-11.02,24.41-13.92,8.55-2.73,17.27-4.91,25.83-7.3-3.4-4.29-3.5-4.08-7.5-5.87-8.59-3.85-17.3-7.51-25.54-12.02-4.57-2.5-8.72-6.16-12.23-10.05-2.64-2.93-4.63-6.85-5.76-10.67-3.24-10.85,1.65-20.69,12.14-25.02,3.36-1.39,7.05-1.96,10.98-3,.45-.67,1.27-1.61,1.75-2.7,6.13-13.67,18.53-18.62,32.16-12.55,9.94,4.42,17.87,11.49,24.74,19.79,3.28,3.96,6.41,8.05,9.93,12.49,1.13-11.45,1.91-21.97,3.3-32.42,1.14-8.62,4.06-16.8,9.51-23.7,2.75-3.48,6.01-6.8,9.66-9.28,8.84-6.01,18.09-4.91,25.68,2.56,1.99,1.96,3.65,4.27,5.49,6.46,3.36-.68,6.53-1.62,9.76-1.93,9.34-.9,16.81,3.65,20.44,12.47,3.23,7.85,3.41,15.94,1.16,24.11-3.2,11.58-8.43,22.18-15.41,31.94-2.09,2.91-4.19,5.82-7.8,10.83Z" style="fill: rgb(243, 229, 244);"/></g><g id="__id171_sxmtq6caj"><path d="M112.21,134.22c-7.96-1.48-11.41-7.24-12.92-14.42-2.54-12.1,6.97-22.36,18.98-20.18,4.68,.85,9.47,2.69,13.48,5.24,8.03,5.1,9.27,16.07,3.31,23.53-5.86,7.34-13.13,9.2-22.85,5.83Z" style="fill: rgb(86, 48, 107);"/></g></svg>