<?xml version="1.0" standalone="no"?>
<!DOCTYPE svg PUBLIC "-//W3C//DTD SVG 20010904//EN"
 "http://www.w3.org/TR/2001/REC-SVG-20010904/DTD/svg10.dtd">
<svg version="1.0" xmlns="http://www.w3.org/2000/svg"
 width="50.000000pt" height="50.000000pt" viewBox="0 0 50.000000 50.000000"
 preserveAspectRatio="xMidYMid meet">

<g transform="translate(0.000000,50.000000) scale(0.100000,-0.100000)"
fill="#000000" stroke="none">
<path d="M227 463 c-4 -3 -7 -25 -7 -49 0 -23 -9 -63 -20 -89 -16 -37 -20 -69
-20 -149 0 -66 4 -106 12 -114 8 -8 48 -12 114 -12 81 0 106 3 119 16 9 9 13
24 10 32 -3 8 0 19 6 23 7 4 14 21 16 38 6 62 11 86 17 102 14 33 -20 49 -104
49 l-78 0 9 36 c7 24 7 46 -1 70 -14 41 -53 67 -73 47z"/>
<path d="M27 303 c-5 -8 20 -217 28 -241 3 -9 20 -12 52 -10 l48 3 0 125 0
125 -62 3 c-34 2 -63 -1 -66 -5z m103 -198 c0 -8 -7 -15 -15 -15 -8 0 -15 7
-15 15 0 8 7 15 15 15 8 0 15 -7 15 -15z"/>
</g>
</svg>
