<svg xmlns="http://www.w3.org/2000/svg" xmlns:xlink="http://www.w3.org/1999/xlink" data-name="Layer 1" preserveAspectRatio="xMidYMid meet" version="1.0" viewBox="-0.0 0.0 2123.2 221.3" zoomAndPan="magnify" style="fill: rgb(0, 0, 0);" original_string_length="1492"><g id="__id223_s5grt9yp6h"><path d="M1775.22,1088.39c-80.6,0-120.68-48.58-156-91.45-32.06-38.82-57.37-69.51-109.56-69.51s-77.41,30.65-109.4,69.51c-35.37,42.84-75.41,91.45-156,91.45s-120.6-48.61-155.94-91.49c-32-38.82-57.21-69.47-109.28-69.47S901.6,958.08,869.61,996.9c-35.36,42.88-75.41,91.49-156,91.49s-120.65-48.61-156-91.49c-32-38.82-57.25-69.47-109.32-69.47S371,958.08,339,996.9c-35.32,42.88-75.41,91.49-156,91.49S62.45,1039.78,27.12,996.9C.4,964.47-21.64,937.74-58.53,929.82a30.14,30.14,0,0,1-23.68-29.51h0a30.2,30.2,0,0,1,36.34-29.6c57.16,12.06,90,52,119.6,87.84,32,38.83,57.25,69.48,109.32,69.48s77.38-30.69,109.37-69.52c35.32-42.87,75.37-91.44,155.93-91.44S569,915.64,604.28,958.51c32,38.83,57.25,69.52,109.37,69.52S791,997.38,823,958.55c35.36-42.87,75.41-91.48,156-91.48s120.56,48.61,155.89,91.44c32,38.87,57.26,69.52,109.33,69.52s77.41-30.65,109.4-69.52c35.37-42.83,75.41-91.44,156-91.44s120.72,48.61,156.09,91.44c32.07,38.87,57.37,69.52,109.52,69.52s77.5-30.69,109.56-69.52c29.61-35.89,62.52-75.77,119.76-87.81a30.2,30.2,0,0,1,36.33,29.6h0a30.12,30.12,0,0,1-23.68,29.51c-37,7.92-59.08,34.68-85.88,67.13C1895.94,1039.81,1855.86,1088.39,1775.22,1088.39Z" transform="translate(82.21 -867.07)" style="fill: rgb(159, 118, 185);"/></g></svg>