<svg xmlns="http://www.w3.org/2000/svg" xmlns:xlink="http://www.w3.org/1999/xlink" preserveAspectRatio="xMidYMid meet" version="1.0" viewBox="-0.1 -0.0 126.2 104.4" zoomAndPan="magnify" style="fill: rgb(255, 255, 255);" original_string_length="5042"><g id="__id175_sxayhb03q2"><path d="M120.45,5.73c0.88,0,1.6-0.72,1.6-1.61s-0.72-1.61-1.6-1.61c-0.89,0-1.61,0.72-1.61,1.61S119.56,5.73,120.45,5.73z" style="fill: inherit;"/><path d="M119.73,25.05c0-0.89-0.72-1.61-1.61-1.61s-1.61,0.72-1.61,1.61c0,0.89,0.72,1.61,1.61,1.61S119.73,25.94,119.73,25.05z" style="fill: inherit;"/><path d="M114.91,34.13c0,0.89,0.71,1.61,1.6,1.61s1.61-0.72,1.61-1.61s-0.72-1.61-1.61-1.61S114.91,33.24,114.91,34.13z" style="fill: inherit;"/><path d="M106.15,7.34c0.89,0,1.61-0.72,1.61-1.61c0-0.89-0.72-1.61-1.61-1.61c-0.89,0-1.61,0.72-1.61,1.61 C104.54,6.62,105.26,7.34,106.15,7.34z" style="fill: inherit;"/><path d="M102.94,18.15c0.88,0,1.6-0.72,1.6-1.61c0-0.89-0.72-1.61-1.6-1.61c-0.89,0-1.61,0.72-1.61,1.61 C101.33,17.43,102.05,18.15,102.94,18.15z" style="fill: inherit;"/><path d="M99.77,57.31c-0.89,0-1.61,0.72-1.61,1.61c0,0.89,0.72,1.61,1.61,1.61c0.89,0,1.61-0.72,1.61-1.61 C101.38,58.03,100.66,57.31,99.77,57.31z" style="fill: inherit;"/><path d="M90.58,45.18c0,0.89,0.72,1.61,1.61,1.61c0.88,0,1.6-0.72,1.6-1.61s-0.72-1.61-1.6-1.61 C91.3,43.57,90.58,44.29,90.58,45.18z" style="fill: inherit;"/><path d="M90.58,66.45c-0.89,0-1.61,0.72-1.61,1.61c0,0.88,0.72,1.6,1.61,1.6c0.89,0,1.61-0.72,1.61-1.6 C92.19,67.17,91.47,66.45,90.58,66.45z" style="fill: inherit;"/><path d="M55.74,32.3c0.89,0,1.61-0.72,1.61-1.61c0-0.88-0.72-1.6-1.61-1.6s-1.61,0.72-1.61,1.6C54.13,31.58,54.85,32.3,55.74,32.3z" style="fill: inherit;"/><path d="M52.95,75.27c0,0.89,0.72,1.61,1.61,1.61c0.88,0,1.6-0.72,1.6-1.61s-0.72-1.61-1.6-1.61 C53.67,73.66,52.95,74.38,52.95,75.27z" style="fill: inherit;"/><path d="M48.17,52.99c-0.88,0-1.6,0.72-1.6,1.61c0,0.89,0.72,1.61,1.6,1.61c0.89,0,1.61-0.72,1.61-1.61 C49.78,53.71,49.06,52.99,48.17,52.99z" style="fill: inherit;"/><circle cx="45.63" cy="97" r="1.61" style="fill: inherit;"/><path d="M31.39,48.4c0.89,0,1.61-0.72,1.61-1.61c0-0.89-0.72-1.61-1.61-1.61c-0.89,0-1.61,0.72-1.61,1.61 C29.78,47.68,30.5,48.4,31.39,48.4z" style="fill: inherit;"/><path d="M32.689,80.031l11.971-9.963c0.324-0.27,0.444-0.713,0.301-1.108c-0.144-0.396-0.52-0.66-0.94-0.66H29.785l-6.292-13.922 c-0.062-0.281-0.231-0.536-0.507-0.678c-0.169-0.087-0.35-0.104-0.526-0.091c-0.014,0.001-0.028,0.004-0.043,0.005 c-0.105,0.012-0.203,0.037-0.298,0.081c-0.019,0.008-0.039,0.006-0.058,0.016c-0.028,0.014-0.045,0.04-0.071,0.056 c-0.054,0.035-0.104,0.072-0.151,0.118c-0.069,0.064-0.124,0.135-0.171,0.215c-0.007,0.013-0.02,0.021-0.027,0.034l-0.021,0.04 c-0.003,0.006-0.002,0.012-0.005,0.018c-0.005,0.009-0.012,0.016-0.016,0.025l-0.015,0.034c-0.007,0.02-0.019,0.036-0.025,0.056 L15.235,68.3H1c-0.421,0-0.797,0.264-0.94,0.66c-0.144,0.396-0.022,0.839,0.301,1.108l11.972,9.963L8.558,95.716 c-0.099,0.412,0.072,0.841,0.427,1.072c0.166,0.108,0.356,0.162,0.546,0.162c0.214,0,0.428-0.068,0.606-0.205l12.373-9.438 l12.374,9.438c0.337,0.258,0.799,0.274,1.152,0.043c0.354-0.231,0.525-0.66,0.427-1.072L32.689,80.031z" style="fill: inherit;"/><path d="M29.764,57.872c0.193,0.284,0.507,0.438,0.827,0.438c0.193,0,0.39-0.056,0.562-0.174l68.09-46.369 c0.457-0.311,0.575-0.933,0.264-1.389c-0.31-0.455-0.932-0.578-1.389-0.264l-68.09,46.369 C29.57,56.794,29.452,57.416,29.764,57.872z" style="fill: inherit;"/><path d="M49.565,66.318c0.194,0.275,0.503,0.422,0.816,0.422c0.2,0,0.402-0.06,0.577-0.185l74.62-52.92 c0.451-0.319,0.557-0.943,0.237-1.394c-0.319-0.451-0.945-0.558-1.394-0.237l-74.62,52.92 C49.351,65.244,49.245,65.868,49.565,66.318z" style="fill: inherit;"/><path d="M124.422,33.314l-74.62,52.91c-0.451,0.319-0.557,0.943-0.237,1.394c0.194,0.275,0.503,0.422,0.816,0.422 c0.2,0,0.402-0.06,0.577-0.185l74.62-52.91c0.451-0.319,0.557-0.943,0.237-1.394C125.496,33.101,124.87,32.993,124.422,33.314z" style="fill: inherit;"/><path d="M120.45,56.31c-4.179,0-6.48-2.298-6.48-6.47c0-0.553-0.447-1-1-1s-1,0.447-1,1c0,3.99-2.479,6.47-6.47,6.47 c-0.553,0-1,0.447-1,1s0.447,1,1,1c3.688,0,6.47,2.782,6.47,6.471c0,0.553,0.447,1,1,1s1-0.447,1-1c0-3.81,2.665-6.471,6.48-6.471 c0.553,0,1-0.447,1-1S121.003,56.31,120.45,56.31z" style="fill: inherit;"/><path d="M73.93,94.95c-4.172,0-6.47-2.298-6.47-6.471c0-0.553-0.447-1-1-1s-1,0.447-1,1c0,3.991-2.479,6.471-6.47,6.471 c-0.553,0-1,0.447-1,1s0.447,1,1,1c3.688,0,6.47,2.781,6.47,6.47c0,0.553,0.447,1,1,1s1-0.447,1-1c0-3.81,2.66-6.47,6.47-6.47 c0.553,0,1-0.447,1-1S74.483,94.95,73.93,94.95z" style="fill: inherit;"/><path d="M71.71,9.47c3.688,0,6.47,2.782,6.47,6.471c0,0.553,0.447,1,1,1s1-0.447,1-1c0-3.81,2.661-6.471,6.471-6.471 c0.553,0,1-0.447,1-1s-0.447-1-1-1c-4.173,0-6.471-2.298-6.471-6.47c0-0.553-0.447-1-1-1s-1,0.447-1,1c0,3.99-2.479,6.47-6.47,6.47 c-0.553,0-1,0.447-1,1S71.157,9.47,71.71,9.47z" style="fill: inherit;"/><path d="M17.18,35.13c3.688,0,6.471,2.781,6.471,6.47c0,0.553,0.447,1,1,1s1-0.447,1-1c0-3.81,2.66-6.47,6.47-6.47 c0.553,0,1-0.447,1-1s-0.447-1-1-1c-4.172,0-6.47-2.298-6.47-6.47c0-0.553-0.447-1-1-1s-1,0.447-1,1c0,3.99-2.479,6.47-6.471,6.47 c-0.553,0-1,0.447-1,1S16.627,35.13,17.18,35.13z" style="fill: inherit;"/></g></svg>